<?xml version="1.0" standalone="no"?>
<!DOCTYPE svg PUBLIC "-//W3C//DTD SVG 20010904//EN"
 "http://www.w3.org/TR/2001/REC-SVG-20010904/DTD/svg10.dtd">
<svg version="1.0" xmlns="http://www.w3.org/2000/svg"
 width="359.000000pt" height="216.000000pt" viewBox="0 0 359.000000 216.000000"
 preserveAspectRatio="xMidYMid meet">
<metadata>
Created by potrace 1.16, written by Peter Selinger 2001-2019
</metadata>
<g transform="translate(0.000000,216.000000) scale(0.100000,-0.100000)"
fill="#000000" stroke="none">
<path d="M260 1613 c0 -87 -1 -365 -3 -617 -1 -295 2 -463 8 -471 5 -6 27 -24
49 -39 36 -27 43 -28 107 -23 38 3 81 12 96 19 28 14 28 15 25 98 -2 47 0 158
3 246 l7 162 149 3 c103 3 152 8 161 17 7 7 14 45 16 88 l4 76 -38 39 -38 39
-127 0 -126 0 -7 31 c-3 17 -6 71 -6 120 l0 89 143 0 c141 0 264 13 281 30 5
5 9 45 9 90 1 80 1 80 -38 120 l-39 40 -318 0 -318 0 0 -157z m634 121 c8 -20
8 -88 0 -134 l-6 -36 -208 3 c-135 2 -211 0 -215 -7 -9 -14 -6 -303 3 -312 4
-4 78 -9 165 -12 87 -3 163 -8 168 -11 10 -7 11 -97 0 -134 -6 -24 -8 -24
-126 -23 -66 1 -140 -2 -165 -6 l-45 -7 -5 -255 -5 -254 -35 -8 c-19 -4 -60
-5 -91 -2 l-56 6 -1 604 -2 604 309 0 c272 0 310 -2 315 -16z"/>
<path d="M1056 1762 c-11 -18 -19 -129 -12 -166 4 -20 21 -52 38 -72 l31 -35
91 2 91 2 0 -481 c0 -478 0 -480 22 -510 17 -23 32 -31 70 -36 57 -7 163 8
175 26 6 8 7 226 4 516 l-5 502 120 0 120 0 16 37 c10 24 14 56 11 91 -4 44
-11 59 -41 90 l-37 38 -344 3 c-223 2 -346 -1 -350 -7z m683 -18 c8 -8 13
-105 7 -138 l-7 -36 -119 0 -120 0 0 -427 c-1 -477 -4 -591 -18 -605 -5 -5
-44 -8 -88 -6 l-79 3 0 507 c-1 317 -4 511 -11 518 -5 5 -61 11 -124 12 l-115
3 -3 70 c-5 123 -43 111 340 107 183 -2 335 -6 337 -8z"/>
<path d="M1898 1764 c-24 -7 -23 -22 13 -171 17 -70 55 -245 84 -388 30 -143
68 -325 85 -405 17 -80 36 -172 42 -204 9 -46 21 -69 49 -98 l36 -38 99 0
c113 0 145 12 156 55 38 153 109 457 123 525 9 47 32 159 51 250 19 91 44 214
56 274 l21 110 -22 42 c-25 46 -46 54 -149 54 -73 0 -86 -10 -101 -72 -74
-321 -114 -504 -123 -555 -6 -35 -14 -63 -18 -63 -4 0 -15 39 -24 87 -9 48
-30 135 -46 193 -16 58 -34 134 -40 170 -15 99 -44 178 -73 207 -24 24 -34 27
-114 29 -48 2 -96 0 -105 -2z m147 -12 c49 -9 46 0 120 -366 65 -318 98 -446
115 -446 9 0 24 55 54 205 26 127 113 501 130 560 l11 40 75 3 c41 1 81 -2 89
-7 12 -7 4 -58 -48 -303 -34 -161 -87 -411 -117 -555 -30 -144 -61 -279 -68
-300 -13 -38 -13 -38 -82 -46 -38 -4 -92 -5 -120 -2 l-51 6 -32 147 c-17 81
-43 197 -56 257 -14 61 -43 205 -66 320 -22 116 -52 255 -66 310 -45 178 -44
165 -20 175 27 11 78 11 132 2z"/>
<path d="M2952 1409 c-84 -29 -141 -81 -177 -161 -29 -63 -29 -63 -30 -273 0
-210 0 -210 28 -270 16 -33 40 -73 55 -89 48 -50 146 -114 196 -127 60 -15
162 -6 221 20 47 21 175 138 175 160 0 6 -5 9 -10 6 -16 -10 -40 14 -40 40 0
31 11 38 32 18 10 -9 18 -11 18 -5 0 6 -9 16 -20 22 -12 7 -20 21 -20 37 l0
26 26 -24 c22 -20 25 -30 21 -63 -4 -26 -3 -35 4 -25 20 32 9 73 -36 124 l-44
50 -81 0 c-89 0 -100 -6 -100 -62 0 -17 -3 -39 -6 -48 -8 -19 -55 -45 -83 -45
-38 0 -45 35 -49 239 l-4 194 23 18 c28 22 92 25 107 6 6 -7 14 -32 18 -55 5
-31 16 -50 41 -72 31 -27 40 -30 106 -30 95 0 112 12 104 71 -22 161 -80 247
-204 299 -103 43 -184 49 -271 19z m207 -15 c29 -8 67 -23 84 -33 45 -24 95
-127 104 -208 l6 -63 -77 0 c-64 0 -77 3 -82 18 -24 78 -41 106 -76 124 -48
25 -83 18 -134 -26 l-39 -34 0 -183 c0 -158 3 -189 18 -221 31 -62 103 -84
172 -51 35 17 48 42 57 113 3 24 5 25 83 25 l80 0 -1 -70 c0 -50 -6 -81 -21
-110 -70 -134 -241 -179 -400 -106 -79 37 -110 65 -145 131 -22 43 -23 54 -23
270 0 215 1 227 24 278 58 128 218 192 370 146z"/>
</g>
</svg>
